<svg xmlns="http://www.w3.org/2000/svg" viewBox="60 40 120 160">
  <rect x="40" y="20" width="160" height="200" fill="#0f0f1a"/>
  <g fill="none" stroke-linecap="round">
    <path d="M120 62 A58 58 0 0 1 170 90" stroke="#4A9EFF" stroke-width="7"/>
    <path d="M120 62 A58 58 0 0 1 170 90" stroke="#4A9EFF" stroke-width="7" transform="rotate(120 120 120)"/>
    <path d="M120 62 A58 58 0 0 1 170 90" stroke="#4A9EFF" stroke-width="7" transform="rotate(240 120 120)"/>

    <path d="M120 84 A36 36 0 0 1 150 100" stroke="#8ec3ff" stroke-width="6"/>
    <path d="M120 84 A36 36 0 0 1 150 100" stroke="#8ec3ff" stroke-width="6" transform="rotate(120 120 120)"/>
    <path d="M120 84 A36 36 0 0 1 150 100" stroke="#8ec3ff" stroke-width="6" transform="rotate(240 120 120)"/>
  </g>
  <g stroke="#4A9EFF" stroke-width="6" stroke-linecap="round">
    <line x1="120" y1="62" x2="120" y2="84"/>
    <line x1="120" y1="62" x2="120" y2="84" transform="rotate(120 120 120)"/>
    <line x1="120" y1="62" x2="120" y2="84" transform="rotate(240 120 120)"/>
  </g>
  <circle cx="120" cy="120" r="6" fill="#ffffff"/>
</svg>
